<?xml version="1.0" encoding="UTF-8"?>
<svg id="Layer_2" data-name="Layer 2" xmlns="http://www.w3.org/2000/svg" viewBox="0 0 1081.89 110.64">
  <defs>
    <style>
      .cls-1 {
        fill: #ff6277;
      }

      .cls-1, .cls-2, .cls-3, .cls-4 {
        stroke-width: 0px;
      }

      .cls-2 {
        fill: #ffe962;
      }

      .cls-3 {
        fill: #7f32da;
      }

      .cls-4 {
        fill: #60feb7;
      }
    </style>
  </defs>
  <g id="Layer_3" data-name="Layer 3">
    <g>
      <path class="cls-4" d="M189.51,97.26c-3.35,4.27-7.57,7.57-12.68,9.89-5.11,2.32-10.4,3.48-15.88,3.48s-10.1-.84-14.7-2.51c-4.6-1.67-8.59-4.06-11.98-7.17-3.39-3.11-6.06-6.85-8.01-11.21-1.95-4.36-2.93-9.24-2.93-14.63s.98-10.26,2.93-14.63c1.95-4.36,4.62-8.1,8.01-11.21,3.39-3.11,7.38-5.5,11.98-7.17,4.6-1.67,9.5-2.51,14.7-2.51,4.83,0,9.22.84,13.16,2.51,3.95,1.67,7.29,4.06,10.03,7.17,2.74,3.11,4.85,6.85,6.34,11.21,1.48,4.37,2.23,9.24,2.23,14.63v6.55h-48.48c.84,4,2.65,7.17,5.43,9.54,2.78,2.37,6.22,3.55,10.31,3.55,3.44,0,6.34-.77,8.71-2.3,2.37-1.53,4.43-3.5,6.2-5.92l14.63,10.73ZM171.82,67.45c.09-3.53-1.07-6.55-3.48-9.05-2.42-2.51-5.53-3.76-9.34-3.76-2.32,0-4.37.37-6.13,1.11-1.76.74-3.27,1.7-4.53,2.86-1.25,1.16-2.23,2.51-2.92,4.04-.7,1.53-1.09,3.13-1.19,4.8h27.58Z"/>
      <path class="cls-4" d="M276.44,108.97h-19.22v-8.91h-.28c-.84,1.21-1.93,2.44-3.28,3.69-1.35,1.25-2.92,2.39-4.74,3.41-1.81,1.02-3.81,1.86-5.99,2.51-2.18.65-4.44.98-6.76.98-5.01,0-9.57-.86-13.65-2.58-4.09-1.72-7.59-4.13-10.52-7.24-2.93-3.11-5.18-6.8-6.76-11.07-1.58-4.27-2.37-8.96-2.37-14.07,0-4.74.72-9.26,2.16-13.58,1.44-4.32,3.48-8.15,6.13-11.49,2.65-3.34,5.87-6.01,9.68-8.01,3.81-2,8.13-3,12.96-3,4.36,0,8.43.67,12.19,2.02,3.76,1.35,6.85,3.65,9.26,6.89h.28V3.65h20.9v105.31ZM257.21,75.12c0-5.11-1.46-9.24-4.39-12.4-2.93-3.16-7.04-4.74-12.33-4.74s-9.4,1.58-12.33,4.74c-2.92,3.16-4.39,7.29-4.39,12.4s1.46,9.24,4.39,12.4c2.93,3.16,7.03,4.74,12.33,4.74s9.4-1.58,12.33-4.74c2.92-3.16,4.39-7.29,4.39-12.4Z"/>
      <path class="cls-4" d="M291.76,19.95c0-3.34,1.18-6.2,3.55-8.57,2.37-2.37,5.23-3.55,8.57-3.55s6.2,1.18,8.57,3.55c2.37,2.37,3.55,5.22,3.55,8.57s-1.18,6.2-3.55,8.57c-2.37,2.37-5.23,3.55-8.57,3.55s-6.2-1.18-8.57-3.55c-2.37-2.37-3.55-5.22-3.55-8.57ZM293.43,41.26h20.89v67.7h-20.89V41.26Z"/>
      <path class="cls-4" d="M359.74,82.64h-34.27v-16.71h34.27v16.71Z"/>
      <g>
        <g>
          <rect class="cls-1" x="46.41" y="76.96" width="15.2" height="32.01" rx="7.6" ry="7.6"/>
          <rect class="cls-2" x="26.56" y="66.54" width="15.2" height="42.43" rx="7.6" ry="7.6"/>
          <rect class="cls-3" x="66.26" y="86.86" width="15.2" height="22.1" rx="7.6" ry="7.6" transform="translate(147.72 195.83) rotate(-180)"/>
        </g>
        <path class="cls-4" d="M90.41,2.91c-12.13,12.13-24.27,25.64-36.4,37.77C43.71,30.38,19.45,4.75,17.61,2.91,11.29-3.41,0,1.26,0,10.2v88.44c0,5.4,4.74,10.56,10.32,10.32,5.59-.25,10.32-4.53,10.32-10.32v-62.17c6.86,6.86,24.25,24.25,26.08,26.08,3.94,3.94,10.64,3.95,14.59,0,8.69-8.69,17.39-17.39,26.08-26.08v62.17c0,5.4,4.74,10.56,10.32,10.32,5.59-.25,10.32-4.53,10.32-10.32V10.2c0-8.93-11.29-13.62-17.61-7.29Z"/>
      </g>
      <g>
        <path class="cls-4" d="M532.33,100.47h-.28c-2.32,3.62-5.41,6.22-9.26,7.8-3.86,1.58-7.92,2.37-12.19,2.37-3.16,0-6.2-.44-9.12-1.32-2.92-.88-5.5-2.2-7.73-3.97-2.23-1.76-3.99-3.95-5.29-6.55-1.3-2.6-1.95-5.62-1.95-9.05,0-3.9.72-7.2,2.16-9.89,1.44-2.69,3.39-4.92,5.85-6.69,2.46-1.76,5.27-3.13,8.43-4.11,3.15-.98,6.43-1.7,9.82-2.16,3.39-.46,6.78-.74,10.17-.84,3.39-.09,6.52-.14,9.4-.14,0-3.72-1.32-6.66-3.97-8.85-2.65-2.18-5.78-3.27-9.41-3.27-3.44,0-6.57.72-9.4,2.16-2.83,1.44-5.37,3.41-7.59,5.92l-11.14-11.42c3.9-3.62,8.45-6.34,13.65-8.15,5.2-1.81,10.59-2.72,16.16-2.72,6.13,0,11.16.77,15.11,2.3,3.95,1.53,7.1,3.78,9.47,6.76,2.37,2.97,4.02,6.62,4.95,10.94.93,4.32,1.39,9.31,1.39,14.97v34.41h-19.22v-8.5ZM527.18,79.29c-1.58,0-3.55.07-5.92.21s-4.65.54-6.83,1.18c-2.18.65-4.04,1.63-5.57,2.93-1.53,1.3-2.3,3.11-2.3,5.43,0,2.51,1.07,4.37,3.21,5.57,2.13,1.21,4.36,1.81,6.69,1.81,2.04,0,4.02-.28,5.92-.84,1.9-.56,3.6-1.34,5.08-2.37,1.48-1.02,2.67-2.32,3.55-3.9.88-1.58,1.32-3.43,1.32-5.57v-4.46h-5.15Z"/>
        <path class="cls-4" d="M602.96,61.18c-3.06-3.81-7.1-5.71-12.12-5.71-1.77,0-3.48.42-5.16,1.25-1.67.84-2.51,2.28-2.51,4.32,0,1.67.86,2.9,2.58,3.69,1.72.79,3.9,1.49,6.55,2.09,2.65.61,5.48,1.26,8.5,1.95,3.02.7,5.85,1.79,8.5,3.27,2.65,1.49,4.83,3.51,6.55,6.06,1.72,2.56,2.58,5.97,2.58,10.24s-.95,7.96-2.86,10.8c-1.9,2.83-4.34,5.11-7.31,6.83-2.97,1.72-6.32,2.93-10.03,3.62-3.71.7-7.38,1.04-11,1.04-4.74,0-9.52-.67-14.35-2.02s-8.91-3.74-12.26-7.17l12.68-14.07c1.95,2.41,4.11,4.25,6.48,5.5,2.37,1.25,5.13,1.88,8.29,1.88,2.42,0,4.6-.35,6.55-1.04,1.95-.7,2.92-1.97,2.92-3.83,0-1.76-.86-3.09-2.58-3.97-1.72-.88-3.9-1.62-6.55-2.23-2.65-.6-5.48-1.25-8.5-1.95-3.02-.7-5.85-1.74-8.5-3.13-2.65-1.39-4.83-3.36-6.55-5.92-1.72-2.55-2.58-5.97-2.58-10.24,0-3.99.81-7.43,2.44-10.31,1.63-2.88,3.76-5.25,6.41-7.11,2.65-1.86,5.68-3.23,9.12-4.11,3.44-.88,6.92-1.32,10.45-1.32,4.46,0,8.96.65,13.51,1.95,4.55,1.3,8.4,3.62,11.56,6.96l-12.82,12.68Z"/>
        <path class="cls-4" d="M650.05,3.65v46.81h.28c.47-1.3,1.26-2.6,2.37-3.9,1.11-1.3,2.46-2.46,4.04-3.48,1.58-1.02,3.44-1.86,5.57-2.51,2.13-.65,4.46-.98,6.96-.98,5.3,0,9.57.81,12.82,2.44,3.25,1.63,5.78,3.88,7.59,6.76,1.81,2.88,3.04,6.27,3.69,10.17.65,3.9.97,8.13.97,12.68v37.33h-20.9v-33.15c0-1.95-.07-3.97-.21-6.06s-.56-4.02-1.25-5.78c-.7-1.76-1.77-3.2-3.21-4.32-1.44-1.11-3.5-1.67-6.2-1.67s-4.87.49-6.55,1.46c-1.67.97-2.95,2.28-3.83,3.9-.88,1.63-1.46,3.46-1.74,5.5-.28,2.04-.42,4.18-.42,6.41v33.71h-20.9V3.65h20.9Z"/>
        <path class="cls-4" d="M711.06,3.65h20.9v44.86h.28c2.42-3.25,5.5-5.55,9.27-6.89,3.76-1.35,7.82-2.02,12.19-2.02,4.83,0,9.15,1,12.96,3,3.81,2,7.04,4.67,9.68,8.01,2.65,3.34,4.69,7.17,6.13,11.49,1.44,4.32,2.16,8.85,2.16,13.58,0,5.11-.79,9.8-2.37,14.07-1.58,4.27-3.83,7.96-6.76,11.07-2.93,3.11-6.43,5.53-10.52,7.24-4.09,1.72-8.64,2.58-13.65,2.58-2.42,0-4.69-.33-6.83-.98-2.14-.65-4.11-1.48-5.92-2.51-1.81-1.02-3.39-2.16-4.74-3.41-1.35-1.25-2.44-2.48-3.27-3.69h-.28v8.91h-19.22V3.65ZM730.28,75.12c0,5.11,1.46,9.24,4.39,12.4,2.93,3.16,7.04,4.74,12.33,4.74s9.41-1.58,12.33-4.74c2.92-3.16,4.39-7.29,4.39-12.4s-1.46-9.24-4.39-12.4-7.03-4.74-12.33-4.74-9.4,1.58-12.33,4.74c-2.92,3.16-4.39,7.29-4.39,12.4Z"/>
        <path class="cls-4" d="M794.36,75.12c0-5.38.98-10.26,2.93-14.63,1.95-4.36,4.62-8.1,8.01-11.21,3.39-3.11,7.39-5.5,11.98-7.17,4.6-1.67,9.5-2.51,14.7-2.51s10.1.84,14.7,2.51c4.6,1.67,8.59,4.06,11.98,7.17,3.39,3.11,6.06,6.85,8.01,11.21,1.95,4.37,2.93,9.24,2.93,14.63s-.98,10.26-2.93,14.63c-1.95,4.37-4.62,8.1-8.01,11.21-3.39,3.11-7.38,5.5-11.98,7.17-4.6,1.67-9.5,2.51-14.7,2.51s-10.1-.84-14.7-2.51c-4.6-1.67-8.59-4.06-11.98-7.17-3.39-3.11-6.06-6.85-8.01-11.21-1.95-4.36-2.93-9.24-2.93-14.63ZM815.26,75.12c0,5.11,1.46,9.24,4.39,12.4,2.93,3.16,7.03,4.74,12.33,4.74s9.4-1.58,12.33-4.74c2.92-3.16,4.39-7.29,4.39-12.4s-1.46-9.24-4.39-12.4c-2.93-3.16-7.04-4.74-12.33-4.74s-9.4,1.58-12.33,4.74c-2.92,3.16-4.39,7.29-4.39,12.4Z"/>
        <path class="cls-4" d="M924.33,100.47h-.28c-2.32,3.62-5.41,6.22-9.26,7.8-3.86,1.58-7.92,2.37-12.19,2.37-3.16,0-6.2-.44-9.12-1.32-2.92-.88-5.5-2.2-7.73-3.97s-3.99-3.95-5.29-6.55c-1.3-2.6-1.95-5.62-1.95-9.05,0-3.9.72-7.2,2.16-9.89,1.44-2.69,3.39-4.92,5.85-6.69,2.46-1.76,5.27-3.13,8.43-4.11,3.15-.98,6.43-1.7,9.82-2.16s6.78-.74,10.17-.84c3.39-.09,6.52-.14,9.4-.14,0-3.72-1.32-6.66-3.97-8.85-2.65-2.18-5.78-3.27-9.41-3.27-3.44,0-6.57.72-9.4,2.16-2.83,1.44-5.37,3.41-7.59,5.92l-11.14-11.42c3.9-3.62,8.45-6.34,13.65-8.15,5.2-1.81,10.59-2.72,16.16-2.72,6.13,0,11.16.77,15.11,2.3,3.95,1.53,7.1,3.78,9.47,6.76,2.37,2.97,4.02,6.62,4.95,10.94s1.39,9.31,1.39,14.97v34.41h-19.22v-8.5ZM919.18,79.29c-1.58,0-3.55.07-5.92.21s-4.65.54-6.83,1.18c-2.18.65-4.04,1.63-5.57,2.93-1.53,1.3-2.3,3.11-2.3,5.43,0,2.51,1.07,4.37,3.21,5.57,2.13,1.21,4.36,1.81,6.69,1.81,2.04,0,4.02-.28,5.92-.84,1.9-.56,3.6-1.34,5.08-2.37,1.48-1.02,2.67-2.32,3.55-3.9.88-1.58,1.32-3.43,1.32-5.57v-4.46h-5.15Z"/>
        <path class="cls-4" d="M956.65,41.26h20.9v10.87h.28c2.23-4.18,4.88-7.31,7.94-9.4,3.07-2.09,6.92-3.13,11.56-3.13,1.2,0,2.41.05,3.62.14,1.21.09,2.32.28,3.35.56v19.08c-1.49-.46-2.95-.81-4.39-1.04-1.44-.23-2.95-.35-4.53-.35-4,0-7.15.56-9.48,1.67-2.32,1.11-4.11,2.67-5.36,4.67-1.26,2-2.07,4.39-2.44,7.17-.37,2.78-.56,5.85-.56,9.19v28.28h-20.9V41.26Z"/>
        <path class="cls-4" d="M1081.89,108.97h-19.22v-8.91h-.28c-.84,1.21-1.93,2.44-3.28,3.69s-2.92,2.39-4.74,3.41c-1.81,1.02-3.81,1.86-5.99,2.51-2.18.65-4.44.98-6.76.98-5.01,0-9.57-.86-13.65-2.58-4.09-1.72-7.59-4.13-10.52-7.24-2.93-3.11-5.18-6.8-6.76-11.07-1.58-4.27-2.37-8.96-2.37-14.07,0-4.74.72-9.26,2.16-13.58,1.44-4.32,3.48-8.15,6.13-11.49,2.65-3.34,5.87-6.01,9.68-8.01,3.81-2,8.13-3,12.96-3,4.36,0,8.43.67,12.19,2.02,3.76,1.35,6.85,3.65,9.26,6.89h.28V3.65h20.9v105.31ZM1062.67,75.12c0-5.11-1.46-9.24-4.39-12.4-2.93-3.16-7.04-4.74-12.33-4.74s-9.4,1.58-12.33,4.74c-2.92,3.16-4.39,7.29-4.39,12.4s1.46,9.24,4.39,12.4c2.93,3.16,7.03,4.74,12.33,4.74s9.4-1.58,12.33-4.74c2.92-3.16,4.39-7.29,4.39-12.4Z"/>
        <g>
          <path class="cls-4" d="M424.78,1.57h-41.52c-5.53,0-10.01,4.48-10.01,10.01h0c0,5.53,4.48,10.01,10.01,10.01h41.52c18.79,0,34.04,15.47,33.68,34.34-.35,18.44-15.8,33.04-34.25,33.04h-40.96c-5.53,0-10.01,4.48-10.01,10.01h0c0,5.53,4.48,10.01,10.01,10.01h40.84c29.56,0,54.09-23.61,54.38-53.17.29-29.85-23.91-54.23-53.7-54.23Z"/>
          <g>
            <rect class="cls-1" x="373.25" y="47.64" width="32.01" height="15.2" rx="7.6" ry="7.6"/>
            <rect class="cls-2" x="373.25" y="27.78" width="42.43" height="15.2" rx="7.6" ry="7.6"/>
            <rect class="cls-3" x="376.7" y="64.04" width="15.2" height="22.1" rx="7.6" ry="7.6" transform="translate(309.22 459.39) rotate(-90)"/>
          </g>
        </g>
      </g>
    </g>
  </g>
</svg>